<?xml version="1.0" encoding="UTF-8" standalone="no"?>
<!-- Created with Inkscape (http://www.inkscape.org/) -->

<svg
   xmlns:dc="http://purl.org/dc/elements/1.1/"
   xmlns:cc="http://creativecommons.org/ns#"
   xmlns:rdf="http://www.w3.org/1999/02/22-rdf-syntax-ns#"
   xmlns:svg="http://www.w3.org/2000/svg"
   xmlns="http://www.w3.org/2000/svg"
   xmlns:sodipodi="http://sodipodi.sourceforge.net/DTD/sodipodi-0.dtd"
   xmlns:inkscape="http://www.inkscape.org/namespaces/inkscape"
   width="132.65343mm"
   height="132.65343mm"
   viewBox="0 0 0 470.03185"
   id="svg2"
   version="1.1"
   inkscape:version="0.91 r13725"
   sodipodi:docname="favicon.svg"
   inkscape:export-filename="/Users/jacob/git/teamWORK/code/static/favicon.png"
   inkscape:export-xdpi="12.254489"
   inkscape:export-ydpi="12.254489">
  <defs
     id="defs4" />
  <sodipodi:namedview
     id="base"
     pagecolor="#ffffff"
     bordercolor="#666666"
     borderopacity="1.0"
     inkscape:pageopacity="0.0"
     inkscape:pageshadow="2"
     inkscape:zoom="0.24748737"
     inkscape:cx="101.322"
     inkscape:cy="297.12621"
     inkscape:document-units="px"
     inkscape:current-layer="layer1"
     showgrid="false"
     showborder="true"
     inkscape:window-width="1280"
     inkscape:window-height="708"
     inkscape:window-x="0"
     inkscape:window-y="0"
     inkscape:window-maximized="0"
     fit-margin-top="0"
     fit-margin-left="0"
     fit-margin-right="0"
     fit-margin-bottom="0" />
  <metadata
     id="metadata7">
    <rdf:RDF>
      <cc:Work
         rdf:about="">
        <dc:format>image/svg+xml</dc:format>
        <dc:type
           rdf:resource="http://purl.org/dc/dcmitype/StillImage" />
        <dc:title></dc:title>
      </cc:Work>
    </rdf:RDF>
  </metadata>
  <g
     inkscape:label="Layer 1"
     inkscape:groupmode="layer"
     id="layer1"
     transform="translate(260.41348,-207.6)">
    <path
       style="fill:#4caf50;fill-rule:evenodd;stroke:none;stroke-width:1px;stroke-linecap:butt;stroke-linejoin:miter;stroke-opacity:1;fill-opacity:1"
       d="m 46.302859,647.81036 c 0,0 13.5148,6.04666 21.12454,11.6025 7.609752,5.55584 15.219503,17.67767 1.087115,17.67767 -14.132398,0 -48.294122,1.5056 -55.986013,-0.50507 -9.698815,-2.53528 -13.575299,-26.57629 -13.575299,-26.57629 l -14.469985,-12.56585 c 0,0 -56.635177,49.47527 -125.260487,28.93846 -54.89735,-16.42857 -82.38341,-43.52937 -85.45822,-117.81508 -3.0748,-74.28572 34.24113,-117.18491 68.06396,-148.61348 33.82283,-31.42858 42.69737,-50.49021 31.93556,-77.63307 -10.76181,-27.14286 -61.14619,-19.50979 -81.13241,-32.36693 -19.98622,-12.85715 -13.83661,-61.42858 49.19685,-77.14286 63.03346,-15.71429 121.454709,5.71428 147.590539,42.85714 26.135821,37.14286 27.934403,120.75274 -24.337247,157.89559 -52.271652,37.14286 -105.464752,99.71284 -91.628142,161.14142 13.83661,61.42857 86.144412,26.63522 86.144412,26.63522 0,0 -18.104546,-54.64105 -1.34589,-96.36549 17.582745,-43.7762 38.853867,-65.02102 56.533982,-80.73531 17.680126,-15.71429 30.74803,-25 30.74803,-25 0,0 3.074811,-20 14.605315,-36.42857 C 71.669985,346.38179 87.8127,340.6675 87.8127,340.6675 l 13.83661,-19.28571 c 0,0 3.0748,9.28571 6.14961,15 3.0748,5.71428 6.91831,11.42857 6.91831,11.42857 0,0 9.9931,0.71428 19.98622,7.14286 9.99311,6.42857 22.29232,17.14285 25.36712,22.85714 3.07481,5.71428 4.61221,12.85714 7.68701,17.85714 3.0748,5 9.99311,13.57143 0.7687,18.57143 -9.22441,5 -33.05413,7.85714 -44.58465,6.42857 -11.53051,-1.42857 -40.741141,-10.71428 -40.741141,-10.71428 0,0 16.911421,12.14285 17.680111,31.42857 0.76871,19.28571 -11.5305,26.42857 -11.5305,26.42857 0,0 0.768694,4.28571 23.06102,0.71428 22.29233,-3.57142 35.36024,15.71429 24.59843,20.71429 -10.76182,5 -16.14273,-5 -16.14273,-5 0,0 -7.687,1.42857 -14.60531,2.5 -6.91831,1.07143 -14.605305,3.21429 -19.98621,-0.71429 -5.380905,-3.92857 -11.530515,-7.14285 -11.530515,-7.14285 0,0 -1.5374,11.78571 3.074799,26.07143 4.612211,14.28571 6.918316,60.71428 -3.843494,91.42857 -10.76181,30.71428 -27.673231,51.42857 -27.673231,51.42857 z"
       id="path3355"
       inkscape:connector-curvature="0"
       sodipodi:nodetypes="csssccssssssssscsscsccscssssscscsscsscssc" />
  </g>
</svg>
