<?xml version="1.0" encoding="UTF-8" standalone="no"?>
<!-- Created with Inkscape (http://www.inkscape.org/) -->

<svg
   xmlns:dc="http://purl.org/dc/elements/1.1/"
   xmlns:cc="http://creativecommons.org/ns#"
   xmlns:rdf="http://www.w3.org/1999/02/22-rdf-syntax-ns#"
   xmlns:svg="http://www.w3.org/2000/svg"
   xmlns="http://www.w3.org/2000/svg"
   xmlns:sodipodi="http://sodipodi.sourceforge.net/DTD/sodipodi-0.dtd"
   xmlns:inkscape="http://www.inkscape.org/namespaces/inkscape"
   width="477.57269mm"
   height="241.15665mm"
   viewBox="0 0 1692.1867 854.49209"
   id="svg2"
   version="1.1"
   inkscape:version="0.91 r13725"
   sodipodi:docname="logo.svg"
   inkscape:export-filename="/Users/jacob/git/teamWORK/code/static/logo-white.png"
   inkscape:export-xdpi="30.770086"
   inkscape:export-ydpi="30.770086">
  <defs
     id="defs4" />
  <sodipodi:namedview
     id="base"
     pagecolor="#ffffff"
     bordercolor="#666666"
     borderopacity="1.0"
     inkscape:pageopacity="0.0"
     inkscape:pageshadow="2"
     inkscape:zoom="0.24748737"
     inkscape:cx="914.10353"
     inkscape:cy="681.58644"
     inkscape:document-units="px"
     inkscape:current-layer="layer1"
     showgrid="false"
     showborder="false"
     inkscape:window-width="1280"
     inkscape:window-height="708"
     inkscape:window-x="0"
     inkscape:window-y="0"
     inkscape:window-maximized="0"
     fit-margin-top="0"
     fit-margin-left="0"
     fit-margin-right="0"
     fit-margin-bottom="0" />
  <metadata
     id="metadata7">
    <rdf:RDF>
      <cc:Work
         rdf:about="">
        <dc:format>image/svg+xml</dc:format>
        <dc:type
           rdf:resource="http://purl.org/dc/dcmitype/StillImage" />
        <dc:title></dc:title>
      </cc:Work>
    </rdf:RDF>
  </metadata>
  <g
     inkscape:label="Layer 1"
     inkscape:groupmode="layer"
     id="layer1"
     transform="translate(416.59585,-207.60003)">
    <path
       style="fill:#000000;fill-rule:evenodd;stroke:none;stroke-width:1px;stroke-linecap:butt;stroke-linejoin:miter;stroke-opacity:1"
       d="m 12.302859,647.81036 c 0,0 13.5148,6.04666 21.12454,11.6025 7.609752,5.55584 15.219503,17.67767 1.087115,17.67767 -14.132398,0 -48.294122,1.5056 -55.986013,-0.50507 -9.698815,-2.53528 -13.575299,-26.57629 -13.575299,-26.57629 l -14.469985,-12.56585 c 0,0 -56.635177,49.47527 -125.260487,28.93846 -54.89735,-16.42857 -82.38341,-43.52937 -85.45822,-117.81508 -3.0748,-74.28572 34.24113,-117.18491 68.06396,-148.61348 33.82283,-31.42858 42.69737,-50.49021 31.93556,-77.63307 -10.76181,-27.14286 -61.14619,-19.50979 -81.13241,-32.36693 -19.98622,-12.85715 -13.83661,-61.42858 49.19685,-77.14286 63.03346,-15.71429 121.454709,5.71428 147.590539,42.85714 26.135821,37.14286 27.934403,120.75274 -24.337247,157.89559 -52.271652,37.14286 -105.464752,99.71284 -91.628142,161.14142 13.83661,61.42857 86.144412,26.63522 86.144412,26.63522 0,0 -18.104546,-54.64105 -1.34589,-96.36549 17.582745,-43.7762 38.853867,-65.02102 56.533982,-80.73531 17.6801262,-15.71429 30.74803,-25 30.74803,-25 0,0 3.074811,-20 14.605315,-36.42857 C 37.669985,346.38179 53.8127,340.6675 53.8127,340.6675 l 13.83661,-19.28571 c 0,0 3.074799,9.28571 6.14961,15 3.0748,5.71428 6.918305,11.42857 6.918305,11.42857 0,0 9.993105,0.71428 19.986225,7.14286 9.99311,6.42857 22.29232,17.14285 25.36712,22.85714 3.07481,5.71428 4.61221,12.85714 7.68701,17.85714 3.0748,5 9.99311,13.57143 0.7687,18.57143 -9.22441,5 -33.05413,7.85714 -44.584645,6.42857 -11.530515,-1.42857 -40.741146,-10.71428 -40.741146,-10.71428 0,0 16.911421,12.14285 17.680115,31.42857 0.768706,19.28571 -11.530504,26.42857 -11.530504,26.42857 0,0 0.768694,4.28571 23.06102,0.71428 22.29233,-3.57142 35.36024,15.71429 24.59843,20.71429 -10.76182,5 -16.142725,-5 -16.142725,-5 0,0 -7.687,1.42857 -14.605316,2.5 -6.918305,1.07143 -14.605304,3.21429 -19.986209,-0.71429 -5.380905,-3.92857 -11.530515,-7.14285 -11.530515,-7.14285 0,0 -1.5374,11.78571 3.074799,26.07143 4.612211,14.28571 6.918316,60.71428 -3.843494,91.42857 -10.76181,30.71428 -27.673231,51.42857 -27.673231,51.42857 z"
       id="path3355"
       inkscape:connector-curvature="0"
       sodipodi:nodetypes="csssccssssssssscsscsccscssssscscsscsscssc" />
    <g
       transform="scale(1.0568781,0.94618289)"
       style="font-style:normal;font-weight:normal;font-size:356.11938477px;line-height:125%;font-family:sans-serif;text-align:center;letter-spacing:0px;word-spacing:0px;text-anchor:middle;fill:#000000;fill-opacity:1;stroke:none;stroke-width:1px;stroke-linecap:butt;stroke-linejoin:miter;stroke-opacity:1"
       id="text3357">
      <path
         d="m 77.234494,693.78773 c 0,18.16209 8.902985,27.42119 26.708956,27.42119 18.87433,0 27.77731,-9.2591 27.77731,-27.42119 l 0,-99.35731 c 0,-21.01104 13.88866,-31.69462 28.13343,-31.69462 12.8203,0 26.35284,10.32746 26.35284,31.69462 l 0,99.35731 c 0,18.16209 9.61522,27.42119 27.42119,27.42119 18.51821,0 27.77731,-9.2591 27.77731,-27.42119 l 0,-109.32865 c 0,-52.34955 -32.76298,-70.51164 -60.18418,-70.51164 -21.36716,0 -37.03641,11.39582 -49.50059,25.6406 0,-11.0397 -8.90298,-24.57224 -27.77731,-24.57224 -17.805971,0 -26.708956,13.53254 -26.708956,28.48955 l 0,150.28238 z"
         style="font-style:normal;font-variant:normal;font-weight:bold;font-stretch:normal;font-family:BPreplay;-inkscape-font-specification:'BPreplay Bold'"
         id="path3340"
         inkscape:connector-curvature="0" />
      <path
         d="m 296.42041,523.56266 c -11.39582,4.62956 -18.51821,12.46418 -18.51821,22.43553 0,18.16208 12.8203,22.43552 26.35284,22.43552 12.82029,0 24.57223,-4.62955 39.17313,-4.62955 19.94268,0 43.44656,12.82029 43.44656,33.83134 l 0,17.44985 c -12.82029,-9.25911 -31.69462,-14.6009 -50.92507,-14.6009 -45.58328,0 -72.29223,33.47522 -72.29223,65.52597 0,29.55791 23.14776,57.69134 63.74537,57.69134 19.94268,0 41.30984,-8.19075 58.04746,-25.99672 l 0,6.76627 c 1.06835,14.6009 16.38149,19.23045 22.43552,19.23045 17.44985,0 27.77731,-13.17642 27.77731,-27.42119 l 0,-106.4797 c 0,-54.48627 -44.87104,-75.85343 -90.09821,-75.85343 -16.38149,0 -33.47522,3.20508 -49.14447,9.61522 z m 23.14776,135.32537 c 0,-11.39582 14.95701,-16.38149 29.91403,-16.38149 14.24477,0 29.91403,5.34179 29.91403,14.60089 0,12.46418 -17.09373,18.87433 -33.11911,18.87433 -13.17641,0 -26.70895,-5.69791 -26.70895,-17.09373 z"
         style="font-style:normal;font-variant:normal;font-weight:bold;font-stretch:normal;font-family:BPreplay;-inkscape-font-specification:'BPreplay Bold'"
         id="path3342"
         inkscape:connector-curvature="0" />
      <path
         d="m 459.37841,540.6564 c 0,16.02537 10.68358,21.01104 24.92835,22.43552 l 0,85.46865 c 0,47.00776 11.75194,75.49731 62.67702,75.49731 19.23044,0 29.55791,-9.25911 29.55791,-26.70896 0,-17.80596 -10.32747,-26.70895 -29.55791,-26.70895 -6.76627,0 -7.47851,-7.12239 -7.47851,-22.0794 l 0,-84.75641 16.02537,0 c 18.87433,0 27.77731,-4.98568 27.77731,-22.79165 0,-18.5182 -9.61522,-23.14776 -28.48955,-23.14776 l -15.31313,0 0,-13.88865 c 0,-17.80597 -9.2591,-27.06507 -27.77731,-27.06507 -18.16209,0 -27.4212,9.2591 -27.4212,27.06507 l 0,13.88865 c -14.60089,1.7806 -24.92835,7.12239 -24.92835,22.79165 z"
         style="font-style:normal;font-variant:normal;font-weight:bold;font-stretch:normal;font-family:BPreplay;-inkscape-font-specification:'BPreplay Bold'"
         id="path3344"
         inkscape:connector-curvature="0" />
      <path
         d="m 658.60496,543.86147 c 0,-18.87433 -8.54687,-27.42119 -27.4212,-27.42119 -18.16209,0 -27.06507,8.54686 -27.06507,27.42119 l 0,95.08388 c 0,53.77402 30.98239,84.40029 63.74537,84.40029 19.58657,0 39.88537,-10.68358 54.84238,-30.62627 l 0,10.68358 c 0.35612,16.02538 11.39583,22.43553 21.01105,22.43553 18.51821,0 27.42119,-9.25911 27.42119,-26.35284 l 0,-156.69253 c 0,-18.87433 -8.90298,-28.13343 -27.42119,-28.13343 -19.94269,0 -26.35284,10.32746 -26.35284,28.13343 l 0,74.78507 c 0,34.18746 -17.09373,52.70567 -33.83134,52.70567 -12.46418,0 -24.57223,-6.41015 -24.57223,-41.30985 l -0.35612,-85.11253 z"
         style="font-style:normal;font-variant:normal;font-weight:bold;font-stretch:normal;font-family:BPreplay;-inkscape-font-specification:'BPreplay Bold'"
         id="path3346"
         inkscape:connector-curvature="0" />
      <path
         d="m 800.66878,693.78773 c 0,18.16209 9.2591,27.42119 27.42119,27.42119 18.87433,0 27.42119,-9.2591 27.42119,-27.42119 l 0,-99.35731 c 0,-15.66925 15.66925,-26.70895 29.20179,-26.70895 3.5612,0 5.69791,0.71224 8.19075,1.06836 3.56119,0.71224 8.19074,1.06835 13.17641,1.06835 16.3815,0 28.13344,-13.17641 28.13344,-27.77731 0,-14.60089 -10.68359,-30.27014 -39.17314,-30.27014 -14.95701,0 -38.10477,14.60089 -44.1588,26.35283 -0.71224,-16.73761 -11.75194,-23.50388 -22.79164,-23.50388 -18.16209,0 -27.42119,9.2591 -27.42119,28.48955 l 0,150.6385 z"
         style="font-style:normal;font-variant:normal;font-weight:bold;font-stretch:normal;font-family:BPreplay;-inkscape-font-specification:'BPreplay Bold'"
         id="path3348"
         inkscape:connector-curvature="0" />
      <path
         d="m 971.79523,523.56266 c -11.39582,4.62956 -18.51821,12.46418 -18.51821,22.43553 0,18.16208 12.8203,22.43552 26.35283,22.43552 12.8203,0 24.57225,-4.62955 39.17315,-4.62955 19.9427,0 43.4466,12.82029 43.4466,33.83134 l 0,17.44985 c -12.8203,-9.25911 -31.6947,-14.6009 -50.9251,-14.6009 -45.5833,0 -72.29226,33.47522 -72.29226,65.52597 0,29.55791 23.14776,57.69134 63.74536,57.69134 19.9427,0 41.3099,-8.19075 58.0475,-25.99672 l 0,6.76627 c 1.0683,14.6009 16.3815,19.23045 22.4355,19.23045 17.4498,0 27.7773,-13.17642 27.7773,-27.42119 l 0,-106.4797 c 0,-54.48627 -44.871,-75.85343 -90.0982,-75.85343 -16.3815,0 -33.47522,3.20508 -49.14447,9.61522 z m 23.14776,135.32537 c 0,-11.39582 14.95701,-16.38149 29.91401,-16.38149 14.2448,0 29.914,5.34179 29.914,14.60089 0,12.46418 -17.0937,18.87433 -33.1191,18.87433 -13.1764,0 -26.70891,-5.69791 -26.70891,-17.09373 z"
         style="font-style:normal;font-variant:normal;font-weight:bold;font-stretch:normal;font-family:BPreplay;-inkscape-font-specification:'BPreplay Bold'"
         id="path3350"
         inkscape:connector-curvature="0" />
      <path
         d="m 1131.9043,693.43161 c 0,18.87433 8.903,27.77731 27.7773,27.77731 18.5182,0 27.4212,-8.90298 27.4212,-27.77731 l 0,-232.54596 c 0,-18.16209 -9.6152,-28.13343 -27.7773,-28.13343 -18.1621,0 -27.4212,9.97134 -27.4212,28.13343 l 0,232.54596 z"
         style="font-style:normal;font-variant:normal;font-weight:bold;font-stretch:normal;font-family:BPreplay;-inkscape-font-specification:'BPreplay Bold'"
         id="path3352"
         inkscape:connector-curvature="0" />
    </g>
    <g
       transform="scale(1.0568781,0.94618291)"
       style="font-style:normal;font-weight:normal;font-size:356.11938477px;line-height:125%;font-family:sans-serif;text-align:center;letter-spacing:0px;word-spacing:0px;text-anchor:middle;fill:#000000;fill-opacity:1;stroke:none;stroke-width:1px;stroke-linecap:butt;stroke-linejoin:miter;stroke-opacity:1"
       id="text3499">
      <path
         d="m -394.17611,1007.8315 c 0,18.1621 8.90299,27.4212 26.70896,27.4212 18.87433,0 27.77731,-9.2591 27.77731,-27.4212 l 0,-99.35732 c 0,-21.01104 13.88866,-31.69462 28.13343,-31.69462 12.8203,0 26.35284,10.32746 26.35284,31.69462 l 0,99.35732 c 0,18.1621 9.61522,27.4212 27.42119,27.4212 18.51821,0 27.77731,-9.2591 27.77731,-27.4212 l 0,-109.32866 c 0,-52.34955 -32.76298,-70.51164 -60.18418,-70.51164 -21.36716,0 -37.03641,11.39582 -49.50059,25.6406 0,-11.0397 -8.90298,-24.57224 -27.77731,-24.57224 -17.80597,0 -26.70896,13.53254 -26.70896,28.48955 l 0,150.28239 z"
         style="font-style:normal;font-variant:normal;font-weight:bold;font-stretch:normal;font-family:BPreplay;-inkscape-font-specification:'BPreplay Bold'"
         id="path3356"
         inkscape:connector-curvature="0" />
      <path
         d="m -115.51825,824.78613 c -59.47194,0 -92.23492,51.63731 -92.23492,105.76746 0,58.75969 34.8997,108.61641 97.57671,108.61641 32.762981,0 59.115815,-12.1081 76.921785,-34.1875 4.629552,-4.98563 6.054029,-9.9713 6.054029,-16.38145 0,-16.3815 -8.902985,-23.50388 -20.298805,-23.50388 -18.874327,0 -30.270148,22.0794 -57.691339,22.0794 -15.31313,0 -47.00776,-11.0397 -47.00776,-43.09045 l 81.551339,0 c 27.421193,0 44.158804,0 44.158804,-27.42119 0,-55.1985 -31.694625,-91.8788 -89.029843,-91.8788 z m -33.83134,82.26358 c 0,-22.0794 18.16208,-33.83134 34.54358,-33.83134 15.669248,0 31.338501,11.0397 31.338501,33.83134 l -65.882081,0 z"
         style="font-style:normal;font-variant:normal;font-weight:bold;font-stretch:normal;font-family:BPreplay;-inkscape-font-specification:'BPreplay Bold'"
         id="path3358"
         inkscape:connector-curvature="0" />
      <path
         d="m 3.4534654,1007.4754 c 0,18.8743 9.6152236,27.7773 27.7773116,27.7773 18.518208,0 27.777312,-8.903 27.777312,-27.7773 l 0,-149.21405 c 0,-18.51821 -9.971342,-27.42119 -28.133431,-27.42119 -17.805969,0 -27.4211926,8.90298 -27.4211926,27.42119 l 0,149.21405 z M -1.532206,777.77837 c 0,17.80597 14.244775,31.69463 31.694625,31.69463 18.162089,0 32.050745,-13.88866 32.050745,-31.69463 0,-17.80597 -13.888656,-31.69462 -32.050745,-31.69462 -17.44985,0 -31.694625,13.88865 -31.694625,31.69462 z"
         style="font-style:normal;font-variant:normal;font-weight:bold;font-stretch:normal;font-family:BPreplay;-inkscape-font-specification:'BPreplay Bold'"
         id="path3360"
         inkscape:connector-curvature="0" />
      <path
         d="m 215.97327,852.20732 c -11.0397,-18.51821 -32.05075,-27.06507 -49.14448,-27.06507 -38.81701,0 -75.853428,42.73432 -75.853428,107.54805 0,63.38925 37.748658,102.9185 75.497308,102.9185 19.23045,0 38.4609,-7.4785 52.70567,-32.763 0,37.7487 -7.47851,62.677 -39.17313,62.677 -9.97134,0 -20.29881,-2.4928 -30.27015,-7.8346 -5.69791,-2.8489 -11.0397,-6.7663 -19.58657,-6.7663 -17.44985,0 -27.42119,13.8887 -27.42119,28.4896 0,9.2591 4.27343,18.8743 13.53254,24.9283 19.58656,12.1081 40.59761,18.1621 60.18417,18.1621 51.2812,0 95.08388,-40.2415 95.08388,-114.6704 l 0,-153.84358 c 0,-18.51821 -9.2591,-28.48955 -27.42119,-28.48955 -18.16209,0 -28.13343,9.97134 -28.13343,28.48955 l 0,-1.7806 z m -35.61194,133.90089 c -22.43552,0 -33.47522,-25.99671 -33.47522,-53.06179 0,-27.42119 12.10805,-56.26686 34.54358,-56.26686 17.80597,0 35.61193,20.2988 35.61193,54.84238 0,34.54358 -18.87432,54.48627 -36.68029,54.48627 z"
         style="font-style:normal;font-variant:normal;font-weight:bold;font-stretch:normal;font-family:BPreplay;-inkscape-font-specification:'BPreplay Bold'"
         id="path3362"
         inkscape:connector-curvature="0" />
      <path
         d="m 297.89183,1007.8315 c 0,18.1621 8.90298,27.4212 26.70895,27.4212 18.87433,0 27.77731,-9.2591 27.77731,-27.4212 l 0,-99.35732 c 0,-21.01104 13.88866,-31.69462 28.13343,-31.69462 12.8203,0 26.35284,10.32746 26.35284,31.69462 l 0,99.35732 c 0,18.1621 9.61522,27.4212 27.42119,27.4212 18.51821,0 27.77731,-9.2591 27.77731,-27.4212 l 0,-109.32866 c 0,-52.34955 -32.76298,-70.51164 -60.18417,-70.51164 -21.36717,0 -37.03642,11.39582 -49.5006,25.6406 l 0,-77.99015 c 0,-18.5182 -8.90298,-28.48955 -27.77731,-28.48955 -17.80597,0 -26.70895,9.97135 -26.70895,28.48955 l 0,232.18985 z"
         style="font-style:normal;font-variant:normal;font-weight:bold;font-stretch:normal;font-family:BPreplay;-inkscape-font-specification:'BPreplay Bold'"
         id="path3364"
         inkscape:connector-curvature="0" />
      <path
         d="m 484.31476,1009.9682 c 0,18.8743 8.90298,28.4896 26.70895,28.4896 7.47851,0 23.14776,-6.0541 23.14776,-21.7233 l 0,-11.3958 c 9.25911,22.4355 30.98239,33.4752 49.5006,33.4752 39.52925,0 81.55134,-48.78838 81.55134,-107.19196 0,-69.79939 -37.39254,-106.12357 -72.64836,-106.12357 -20.65492,0 -38.10477,7.4785 -53.41791,28.84567 l 0,-82.26358 c 0,-18.51821 -8.90298,-28.13343 -27.77731,-28.13343 -18.51821,0 -27.06507,9.61522 -27.06507,28.13343 l 0,237.88774 z m 92.94716,-24.92835 c -25.6406,0 -37.03642,-27.42119 -37.03642,-54.13014 0,-25.28448 11.39582,-54.48627 37.03642,-54.48627 23.50388,0 31.69462,31.33851 31.69462,55.91074 0,24.92836 -8.19074,52.70567 -31.69462,52.70567 z"
         style="font-style:normal;font-variant:normal;font-weight:bold;font-stretch:normal;font-family:BPreplay;-inkscape-font-specification:'BPreplay Bold'"
         id="path3366"
         inkscape:connector-curvature="0" />
      <path
         d="m 780.70066,825.85449 c -60.89642,0 -92.59104,49.14447 -92.59104,104.34298 0,55.55462 31.69462,108.26033 92.59104,108.26033 60.18418,0 92.59104,-49.85675 92.59104,-106.12362 0,-54.84238 -32.05075,-106.47969 -92.59104,-106.47969 z m 0,50.56895 c 25.28448,0 36.32418,33.1191 36.32418,58.04746 0,25.28448 -11.0397,54.13015 -36.32418,54.13015 -25.28448,0 -36.32418,-35.25582 -36.32418,-60.18418 0,-25.6406 11.0397,-51.99343 36.32418,-51.99343 z"
         style="font-style:normal;font-variant:normal;font-weight:bold;font-stretch:normal;font-family:BPreplay;-inkscape-font-specification:'BPreplay Bold'"
         id="path3368"
         inkscape:connector-curvature="0" />
      <path
         d="m 899.60559,1007.8315 c 0,18.1621 9.2591,27.4212 27.42119,27.4212 18.87433,0 27.42119,-9.2591 27.42119,-27.4212 l 0,-99.35732 c 0,-15.66925 15.66926,-26.70895 29.20179,-26.70895 3.5612,0 5.69791,0.71224 8.19075,1.06836 3.56119,0.71224 8.19079,1.06836 13.17639,1.06836 16.3815,0 28.1335,-13.17642 28.1335,-27.77731 0,-14.6009 -10.6836,-30.27015 -39.17317,-30.27015 -14.95702,0 -38.10478,14.60089 -44.15881,26.35283 -0.71224,-16.73761 -11.75194,-23.50388 -22.79164,-23.50388 -18.16209,0 -27.42119,9.25911 -27.42119,28.48955 l 0,150.63851 z"
         style="font-style:normal;font-variant:normal;font-weight:bold;font-stretch:normal;font-family:BPreplay;-inkscape-font-specification:'BPreplay Bold'"
         id="path3370"
         inkscape:connector-curvature="0" />
      <path
         d="m 1132.1571,991.09388 c -27.7773,0 -38.1047,-19.58656 -59.4719,-19.58656 -12.8203,0 -25.6406,7.4785 -25.6406,23.50388 0,8.5469 3.5612,17.4498 11.0397,22.7916 19.9427,12.1081 40.9537,20.655 68.0188,20.655 38.817,0 80.8391,-18.1621 80.8391,-65.16989 0,-58.7597 -101.494,-65.16984 -101.494,-89.74208 0,-9.61523 7.1224,-12.8203 16.3815,-12.8203 21.011,0 35.2558,11.75194 53.774,11.75194 16.0254,0 24.5722,-12.10806 24.5722,-23.86 0,-8.54686 -4.6295,-17.44985 -14.2447,-22.79164 -18.5183,-9.61522 -38.4609,-12.46418 -56.9791,-12.46418 -42.0221,0 -78.7024,19.58657 -78.7024,63.38925 0,61.60866 99.3573,63.03313 99.3573,91.52268 0,9.25911 -7.4785,12.8203 -17.4499,12.8203 z"
         style="font-style:normal;font-variant:normal;font-weight:bold;font-stretch:normal;font-family:BPreplay;-inkscape-font-specification:'BPreplay Bold'"
         id="path3372"
         inkscape:connector-curvature="0" />
    </g>
  </g>
</svg>
